<?xml version="1.0" standalone="no"?>
<!DOCTYPE svg PUBLIC "-//W3C//DTD SVG 20010904//EN"
 "http://www.w3.org/TR/2001/REC-SVG-20010904/DTD/svg10.dtd">
<svg version="1.0" xmlns="http://www.w3.org/2000/svg"
 width="900.000000pt" height="900.000000pt" viewBox="0 0 900.000000 900.000000"
 preserveAspectRatio="xMidYMid meet">
<metadata>
Created by potrace 1.11, written by Peter Selinger 2001-2013
</metadata>
<g transform="translate(0.000000,900.000000) scale(0.100000,-0.100000)"
fill="#000000" stroke="none">
<path d="M517 7004 c-2 -2 -28 -5 -58 -8 -64 -6 -148 -15 -169 -20 -8 -1 -37
-7 -65 -11 -60 -11 -53 -9 -90 -23 -106 -42 -141 -84 -130 -158 12 -81 115
-164 305 -247 19 -8 100 -36 180 -62 287 -94 325 -106 345 -115 11 -4 58 -22
105 -40 164 -62 377 -178 624 -340 13 -8 45 -28 72 -45 27 -16 51 -32 54 -35
5 -6 108 -75 142 -95 34 -21 279 -193 436 -306 89 -65 171 -123 181 -129 11
-5 25 -16 33 -23 18 -17 178 -137 184 -137 2 0 12 -7 21 -15 10 -8 151 -114
313 -235 162 -121 303 -227 313 -235 9 -8 21 -15 26 -15 5 0 11 -3 13 -8 7
-16 427 -321 668 -484 244 -166 280 -185 360 -193 36 -4 67 -8 70 -10 3 -2 32
-6 65 -9 33 -4 67 -9 75 -11 8 -2 35 -7 60 -10 25 -3 56 -7 70 -9 14 -3 45 -7
70 -11 25 -3 54 -7 65 -9 11 -3 27 -5 35 -6 16 -1 -74 -32 -202 -70 -43 -13
-78 -26 -78 -29 0 -8 355 -177 390 -186 3 0 14 -6 25 -12 11 -6 72 -32 135
-57 63 -26 125 -51 138 -56 12 -6 32 -14 45 -19 180 -76 622 -214 802 -251 22
-4 51 -11 65 -14 14 -4 41 -9 60 -12 19 -3 45 -7 58 -10 38 -7 65 -11 127 -19
33 -4 69 -10 80 -12 41 -10 442 -12 505 -3 119 18 127 19 151 29 21 7 31 3 70
-33 25 -22 78 -70 117 -105 58 -51 186 -178 258 -255 41 -43 131 -171 157
-221 27 -52 31 -71 32 -138 0 -64 4 -80 18 -88 9 -6 148 -57 309 -115 161 -58
302 -109 313 -114 11 -5 40 -16 65 -24 25 -8 59 -20 75 -27 17 -7 35 -13 40
-15 9 -2 225 -79 298 -106 47 -17 77 13 45 46 -12 11 -340 288 -468 395 -30
25 -64 54 -75 64 -11 10 -33 28 -48 40 -16 12 -36 29 -45 38 -10 9 -44 37 -77
64 -33 26 -62 51 -65 54 -4 5 -136 115 -194 161 -11 8 -35 29 -55 46 -20 17
-142 115 -271 218 -129 103 -253 202 -274 219 -21 18 -43 34 -47 37 -5 4 -11
49 -14 100 -6 112 -43 291 -74 355 -5 11 -22 49 -38 85 -49 115 -174 326 -247
417 -159 200 -342 380 -478 471 -51 35 -73 41 -64 17 3 -8 8 -63 10 -122 5
-84 3 -101 -5 -78 -9 25 -46 125 -75 200 -4 11 -8 22 -8 25 -1 3 -5 11 -9 18
-5 6 -5 12 -2 12 4 0 -3 13 -14 29 -27 37 -159 127 -497 338 -71 45 -361 214
-464 270 -55 30 -133 73 -265 145 -81 44 -674 339 -785 391 -41 19 -154 69
-250 111 -96 43 -188 83 -205 91 -16 7 -59 25 -95 40 -36 14 -78 32 -95 40
-47 21 -452 175 -460 175 -4 0 -21 7 -38 15 -37 17 -532 182 -568 189 -13 2
-62 17 -109 31 -47 15 -101 31 -120 35 -35 9 -112 28 -140 36 -162 44 -527
120 -670 139 -25 4 -76 13 -115 21 -146 31 -217 36 -612 39 -188 1 -344 1
-346 -1z"/>
</g>
</svg>
